<svg width="125" height="64" viewBox="0 0 125 64" fill="none" xmlns="http://www.w3.org/2000/svg">
<path d="M49.57 21.2006C49.1828 20.839 48.728 20.5545 48.2056 20.3471C47.6831 20.1426 47.1607 20.0388 46.6413 20.0388C46.1619 20.0388 45.7225 20.1248 45.3138 20.2967C44.9081 20.4686 44.5516 20.7057 44.2474 21.0109C43.9431 21.3162 43.7065 21.6689 43.5375 22.069C43.3685 22.4721 43.2855 22.9077 43.2855 23.379C43.2855 23.8502 43.3715 24.2888 43.5436 24.6949C43.7157 25.1009 43.9554 25.4595 44.2597 25.7677C44.5639 26.076 44.9204 26.316 45.326 26.4879C45.7317 26.6598 46.1742 26.7458 46.6536 26.7458C47.09 26.7458 47.5633 26.6539 48.0703 26.4672C48.5774 26.2805 49.0415 26.0315 49.4594 25.7174L50.8331 27.3504C50.4582 27.6053 50.0279 27.8364 49.5455 28.0409C49.063 28.2454 48.5559 28.4084 48.0273 28.527C47.4988 28.6455 46.9886 28.7048 46.5031 28.7048C45.6887 28.7048 44.9388 28.5685 44.2535 28.3017C43.5682 28.032 42.9659 27.6586 42.4465 27.1755C41.9272 26.6954 41.5277 26.1293 41.2419 25.4773C40.9561 24.8253 40.8147 24.1258 40.8147 23.3819C40.8147 22.638 40.9622 21.9445 41.2572 21.3014C41.5522 20.6583 41.961 20.0981 42.4865 19.618C43.0089 19.1379 43.6266 18.7644 44.3396 18.5007C45.0525 18.2369 45.8177 18.1035 46.6413 18.1035C47.1699 18.1035 47.6924 18.1658 48.2117 18.2873C48.7311 18.4088 49.2228 18.5836 49.6899 18.8089C50.157 19.0341 50.5688 19.3038 50.9253 19.618L49.567 21.2065L49.57 21.2006ZM48.7464 23.3641H50.8362V27.3504H48.7464V23.3641Z" fill="#143A35"/>
<path d="M62.1544 18.2461C63.5589 18.2461 64.6406 18.5573 65.4027 19.1797C66.1649 19.8021 66.5459 20.6764 66.5459 21.8056C66.5459 22.9911 66.1649 23.9158 65.4027 24.5767C64.6406 25.2376 63.5589 25.5695 62.1544 25.5695H59.9264V28.5392H57.5171V18.2432H62.1544V18.2461ZM62.1544 23.6876C62.8244 23.6876 63.3437 23.5394 63.7094 23.24C64.0751 22.9407 64.2595 22.4872 64.2595 21.8797C64.2595 21.2721 64.0751 20.8513 63.7094 20.5549C63.3437 20.2615 62.8244 20.1133 62.1544 20.1133H59.9264V23.6876H62.1544ZM61.8625 24.7012H64.2104L66.8041 28.5392H64.0751L61.8625 24.7012Z" fill="#143A35"/>
<path d="M78.1039 18.0977C78.9183 18.0977 79.6712 18.231 80.3688 18.4948C81.0664 18.7586 81.6718 19.132 82.1912 19.6121C82.7106 20.0923 83.1131 20.6524 83.4051 21.2896C83.694 21.9268 83.8384 22.6233 83.8384 23.379C83.8384 24.1348 83.694 24.8194 83.4051 25.4685C83.1162 26.1175 82.7106 26.6806 82.1912 27.1667C81.6718 27.6527 81.0664 28.0291 80.3688 28.2988C79.6712 28.5685 78.9183 28.7019 78.1039 28.7019C77.2896 28.7019 76.5366 28.5656 75.839 28.2988C75.1414 28.0291 74.536 27.6527 74.0167 27.1667C73.4973 26.6806 73.0947 26.1146 72.8059 25.4685C72.517 24.8224 72.3726 24.1259 72.3726 23.379C72.3726 22.6322 72.517 21.9268 72.8059 21.2837C73.0947 20.6405 73.5004 20.0834 74.0167 19.6062C74.536 19.132 75.1414 18.7615 75.839 18.4948C76.5366 18.231 77.2896 18.0977 78.1039 18.0977ZM78.1347 20.0537C77.686 20.0537 77.2619 20.1367 76.8624 20.3027C76.4598 20.4686 76.1095 20.7057 75.8114 21.008C75.5102 21.3133 75.2736 21.666 75.1015 22.0661C74.9294 22.4692 74.8433 22.9048 74.8433 23.3761C74.8433 23.8473 74.9294 24.2859 75.1015 24.692C75.2736 25.098 75.5133 25.4566 75.8175 25.7648C76.1218 26.0731 76.4721 26.3131 76.8685 26.485C77.265 26.6569 77.686 26.7429 78.1347 26.7429C78.5834 26.7429 79.0013 26.6569 79.3916 26.485C79.7819 26.3131 80.1261 26.0731 80.4211 25.7648C80.7161 25.4566 80.9466 25.098 81.1156 24.692C81.2846 24.2859 81.3676 23.8473 81.3676 23.3761C81.3676 22.9048 81.2846 22.4692 81.1156 22.0661C80.9466 21.663 80.7161 21.3103 80.4211 21.008C80.1261 20.7057 79.7819 20.4686 79.3916 20.3027C79.0013 20.1367 78.5803 20.0537 78.1347 20.0537Z" fill="#143A35"/>
<path d="M88.6724 18.2461H91.2661L93.8598 27.0988H93.3097L95.8881 18.2461H98.2513L100.86 27.0988H100.31L102.873 18.2461H105.359L101.745 28.5421H99.2593L96.7424 20.1014L97.3079 20.1162L94.7449 28.5451H92.2741L88.6754 18.2491L88.6724 18.2461Z" fill="#143A35"/>
<path d="M46.5519 35.7471C47.3663 35.7471 48.1192 35.8804 48.8168 36.1442C49.5144 36.408 50.1198 36.7814 50.6392 37.2615C51.1586 37.7417 51.5611 38.3018 51.8531 38.939C52.142 39.5762 52.2864 40.2727 52.2864 41.0284C52.2864 41.7842 52.142 42.4688 51.8531 43.1179C51.5642 43.7669 51.1586 44.3301 50.6392 44.8161C50.1198 45.3022 49.5144 45.6786 48.8168 45.9483C48.1192 46.218 47.3663 46.3513 46.5519 46.3513C45.7376 46.3513 44.9846 46.215 44.287 45.9483C43.5894 45.6786 42.984 45.3022 42.4647 44.8161C41.9453 44.3301 41.5427 43.764 41.2539 43.1179C40.965 42.4718 40.8206 41.7753 40.8206 41.0284C40.8206 40.2816 40.965 39.5762 41.2539 38.9331C41.5427 38.29 41.9484 37.7328 42.4647 37.2556C42.984 36.7814 43.5894 36.4109 44.287 36.1442C44.9846 35.8804 45.7376 35.7471 46.5519 35.7471ZM46.5827 37.7031C46.134 37.7031 45.7099 37.7861 45.3104 37.9521C44.9078 38.1181 44.5575 38.3552 44.2594 38.6575C43.9582 38.9627 43.7216 39.3154 43.5495 39.7155C43.3774 40.1186 43.2914 40.5543 43.2914 41.0255C43.2914 41.4967 43.3774 41.9354 43.5495 42.3414C43.7216 42.7474 43.9613 43.106 44.2655 43.4143C44.5698 43.7225 44.9201 43.9625 45.3165 44.1344C45.713 44.3063 46.134 44.3923 46.5827 44.3923C47.0313 44.3923 47.4493 44.3063 47.8396 44.1344C48.2299 43.9625 48.5741 43.7225 48.8691 43.4143C49.1641 43.106 49.3946 42.7474 49.5636 42.3414C49.7326 41.9354 49.8156 41.4967 49.8156 41.0255C49.8156 40.5543 49.7326 40.1186 49.5636 39.7155C49.3946 39.3124 49.1641 38.9598 48.8691 38.6575C48.5741 38.3552 48.2299 38.1181 47.8396 37.9521C47.4493 37.7861 47.0283 37.7031 46.5827 37.7031Z" fill="#94C93D"/>
<path d="M58.4482 35.8945H60.6455L66.4568 43.455L65.833 43.6595V35.8945H68.104V46.1905H65.9221L60.1108 38.6449L60.75 38.4404V46.1905H58.4482V35.8945Z" fill="#94C93D"/>
<path d="M75.0403 35.8946H83.1687V37.7617H77.4496V40.0853H82.5879V41.9524H77.4496V44.3205H83.3377V46.1876H75.0403V35.8916V35.8946Z" fill="#94C93D"/>
<path d="M41.5798 53.544H49.2504V55.4111H43.9892V58.0133H48.8078V59.8805H43.9892V63.837H41.5798V53.541V53.544Z" fill="#143A35"/>
<path d="M57.4557 59.6019C57.4557 60.3576 57.6739 60.9533 58.1103 61.389C58.5467 61.8247 59.1214 62.044 59.8343 62.044C60.5473 62.044 61.082 61.8247 61.503 61.389C61.9241 60.9533 62.1361 60.3576 62.1361 59.6019V53.541H64.5454V59.6019C64.5454 60.4939 64.3549 61.2704 63.9738 61.9343C63.5928 62.5952 63.0488 63.105 62.342 63.4636C61.6352 63.8222 60.7931 64 59.819 64C58.8448 64 57.9966 63.8222 57.2805 63.4636C56.5645 63.105 56.0113 62.5952 55.6272 61.9343C55.24 61.2734 55.0464 60.4969 55.0464 59.6019V53.541H57.4557V59.6019Z" fill="#143A35"/>
<path d="M70.2368 53.5439H79.1581V55.4556H75.8944V63.84H73.4851V55.4556H70.2368V53.5439Z" fill="#143A35"/>
<path d="M87.2558 59.6019C87.2558 60.3576 87.474 60.9533 87.9103 61.389C88.3467 61.8247 88.9214 62.044 89.6344 62.044C90.3473 62.044 90.8821 61.8247 91.3031 61.389C91.7241 60.9533 91.9361 60.3576 91.9361 59.6019V53.541H94.3455V59.6019C94.3455 60.4939 94.1549 61.2704 93.7739 61.9343C93.3928 62.5952 92.8489 63.105 92.142 63.4636C91.4352 63.8222 90.5932 64 89.619 64C88.6448 64 87.7966 63.8222 87.0806 63.4636C86.3646 63.105 85.8114 62.5952 85.4273 61.9343C85.04 61.2734 84.8464 60.4969 84.8464 59.6019V53.541H87.2558V59.6019Z" fill="#143A35"/>
<path d="M105.722 53.544C107.127 53.544 108.208 53.8552 108.971 54.4776C109.733 55.0999 110.114 55.9742 110.114 57.1034C110.114 58.2889 109.733 59.2136 108.971 59.8745C108.208 60.5354 107.127 60.8674 105.722 60.8674H103.494V63.837H101.085V53.541H105.722V53.544ZM105.722 58.9854C106.392 58.9854 106.912 58.8372 107.277 58.5379C107.643 58.2385 107.827 57.7851 107.827 57.1775C107.827 56.57 107.643 56.1491 107.277 55.8527C106.912 55.5593 106.392 55.4111 105.722 55.4111H103.494V58.9854H105.722ZM105.433 59.999H107.781L110.375 63.837H107.646L105.433 59.999Z" fill="#143A35"/>
<path d="M116.703 53.544H124.831V55.4111H119.112V57.7347H124.25V59.6019H119.112V61.9699H125V63.837H116.703V53.541V53.544Z" fill="#143A35"/>
<path d="M25.0095 63.9671H17.0593C17.5941 53.5881 18.1288 43.2062 18.6635 32.8271C20.283 32.842 21.9026 32.8568 23.5252 32.8716C24.02 43.2358 24.5178 53.6029 25.0126 63.9671H25.0095Z" fill="#143A35"/>
<path d="M31.9457 46.4073H28.2303C28.009 45.9745 27.6249 45.3759 26.9611 44.8809C25.8394 44.0452 24.5241 44.0303 22.8124 44.0155C22.4344 44.0126 21.7122 44.0185 19.7454 44.2526C17.8032 44.4838 16.5555 44.7061 15.8855 44.8098C13.8696 45.121 10.443 45.6485 6.98575 44.3919C6.16215 44.0926 4.40125 43.4317 2.80015 41.7779C2.3484 41.3126 1.14066 39.9759 0.467643 37.8598C0.455351 37.8243 0.436911 37.7591 0.409253 37.6731C0.298621 37.3086 -0.13776 35.7734 0.0435548 33.9566C0.252528 31.8849 1.17447 30.3853 1.69075 29.5643C2.7264 27.9165 3.98023 26.8229 4.90524 26.1501C4.25067 25.7085 3.30107 24.9617 2.44367 23.8028C1.44797 22.4573 1.05769 21.2125 0.93476 20.7739C0.326281 18.6074 0.69813 16.8292 0.805689 16.355C0.937834 15.7889 1.40802 14.0077 2.89234 12.3806C5.67045 9.33683 9.75464 9.30127 10.443 9.30423C10.4584 8.44771 10.5997 7.05772 11.3096 5.54029C11.5524 5.0246 13.3686 1.314 17.6772 0.264834C20.0035 -0.30124 21.9734 0.169995 22.9291 0.478224C25.2924 1.24287 26.6476 2.68917 27.1946 3.29081C27.7109 3.85985 28.8265 5.10758 29.3612 7.07254C30.0742 9.68952 29.3028 11.8945 28.9494 12.7481C27.7939 12.7185 26.6353 12.6888 25.4798 12.6592C25.695 12.3272 26.9642 10.2971 26.245 7.73049C26.159 7.4193 25.4829 5.15796 23.1289 3.90727C21.7245 3.16337 20.3969 3.13373 19.8468 3.15151C18.2395 3.19893 17.1086 3.82132 16.7921 4.00804C15.569 4.7223 14.9482 5.65587 14.6839 6.06191C13.5131 7.86682 13.5776 9.71323 13.6114 10.6972C13.6421 11.5419 13.7774 12.2324 13.8911 12.6918C13.4024 12.6088 12.9169 12.5288 12.4283 12.4458C11.3189 12.2591 10.2033 12.2561 9.6901 12.2828C7.63418 12.3924 4.83763 14.2507 4.17384 16.9803C3.74052 18.7615 4.37359 20.2582 4.6471 20.8806C6.26049 24.5438 10.4615 25.6285 11.1375 25.7915C10.5291 26.0197 9.51186 26.4465 8.39017 27.1845C7.46516 27.795 3.57458 30.3645 3.35946 34.2115C3.28263 35.5837 3.69443 36.7395 3.76818 36.9381C3.76818 36.9381 4.24145 38.2303 5.24329 39.3269C6.79829 41.0251 9.83454 41.9854 13.2795 41.7216L16.2082 41.4875C17.5973 41.1703 25.3139 39.6144 29.3981 42.3588C30.4429 43.0612 31.0299 43.9859 31.0299 43.9859C31.6568 44.9224 31.8689 45.8353 31.9488 46.4013L31.9457 46.4073Z" fill="#143A35"/>
<path d="M20.6241 28.8471C23.5807 28.8471 25.9775 26.5357 25.9775 23.6843C25.9775 20.833 23.5807 18.5215 20.6241 18.5215C17.6675 18.5215 15.2708 20.833 15.2708 23.6843C15.2708 26.5357 17.6675 28.8471 20.6241 28.8471Z" fill="#94C93D"/>
</svg>
