<svg width="121" height="64" viewBox="0 0 121 64" fill="none" xmlns="http://www.w3.org/2000/svg">
<path d="M47.9838 21.2025C47.609 20.8409 47.1688 20.5564 46.663 20.3489C46.1573 20.1444 45.6516 20.0407 45.1489 20.0407C44.6848 20.0407 44.2594 20.1267 43.8638 20.2985C43.4711 20.4704 43.126 20.7075 42.8315 21.0128C42.537 21.318 42.3079 21.6707 42.1443 22.0708C41.9807 22.4709 41.9004 22.9095 41.9004 23.3807C41.9004 23.8519 41.9837 24.2905 42.1503 24.6965C42.3169 25.1025 42.5489 25.4611 42.8434 25.7693C43.1379 26.0776 43.483 26.3176 43.8757 26.4895C44.2683 26.6614 44.6967 26.7473 45.1608 26.7473C45.5832 26.7473 46.0413 26.6555 46.5321 26.4688C47.023 26.2821 47.4722 26.0331 47.8767 25.719L49.2065 27.3519C48.8436 27.6068 48.4271 27.8379 47.96 28.0424C47.493 28.2499 47.0022 28.4099 46.4905 28.5285C45.9788 28.647 45.485 28.7063 45.015 28.7063C44.2267 28.7063 43.5008 28.57 42.8375 28.3032C42.1741 28.0335 41.591 27.6571 41.0883 27.177C40.5855 26.6969 40.1988 26.1309 39.9222 25.4789C39.6455 24.8269 39.5087 24.1275 39.5087 23.3837C39.5087 22.6398 39.6515 21.9463 39.937 21.3032C40.2226 20.6601 40.6183 20.1 41.127 19.6199C41.6327 19.1398 42.2306 18.7664 42.9207 18.5026C43.6109 18.2389 44.3516 18.1055 45.1489 18.1055C45.6605 18.1055 46.1662 18.1677 46.669 18.2892C47.1717 18.4107 47.6477 18.5856 48.0999 18.8108C48.552 19.036 48.9507 19.3057 49.2957 19.6199L47.9809 21.2084L47.9838 21.2025ZM47.1866 23.3629H49.2095V27.349H47.1866V23.3629Z" fill="#F7F8F8"/>
<path d="M60.1626 18.2452C61.5221 18.2452 62.5692 18.5563 63.307 19.1787C64.0447 19.801 64.4136 20.6753 64.4136 21.8044C64.4136 22.9898 64.0447 23.9145 63.307 24.5754C62.5692 25.2363 61.5221 25.5682 60.1626 25.5682H58.0059V28.5377H55.6737V18.2422H60.1626V18.2452ZM60.1626 23.6863C60.8111 23.6863 61.3139 23.5381 61.6679 23.2388C62.0219 22.9395 62.2004 22.486 62.2004 21.8785C62.2004 21.271 62.0219 20.8501 61.6679 20.5538C61.3139 20.2604 60.8111 20.1122 60.1626 20.1122H58.0059V23.6863H60.1626ZM59.883 24.7028H62.1557L64.6665 28.5407H62.0248L59.883 24.7028Z" fill="#F7F8F8"/>
<path d="M75.6048 18.0967C76.3931 18.0967 77.1219 18.23 77.7972 18.4938C78.4724 18.7576 79.0585 19.131 79.5612 19.6111C80.064 20.0912 80.4537 20.6513 80.7363 21.2884C81.0159 21.9256 81.1557 22.6221 81.1557 23.3778C81.1557 24.1335 81.0159 24.8181 80.7363 25.4672C80.4566 26.1162 80.064 26.6793 79.5612 27.1653C79.0585 27.6513 78.4724 28.0277 77.7972 28.2974C77.1219 28.5671 76.3931 28.7004 75.6048 28.7004C74.8164 28.7004 74.0876 28.5641 73.4123 28.2974C72.737 28.0277 72.151 27.6513 71.6483 27.1653C71.1455 26.6793 70.7558 26.1132 70.4762 25.4672C70.1966 24.8211 70.0568 24.1246 70.0568 23.3778C70.0568 22.631 70.1966 21.9257 70.4762 21.2826C70.7558 20.6394 71.1485 20.0823 71.6483 19.6051C72.151 19.131 72.737 18.7605 73.4123 18.4938C74.0876 18.23 74.8164 18.0967 75.6048 18.0967ZM75.6345 20.0556C75.2002 20.0556 74.7897 20.1386 74.4029 20.3045C74.0132 20.4705 73.6741 20.7076 73.3856 21.0099C73.094 21.3151 72.865 21.6678 72.6984 22.0679C72.5318 22.468 72.4485 22.9066 72.4485 23.3778C72.4485 23.849 72.5318 24.2876 72.6984 24.6936C72.865 25.0996 73.097 25.4583 73.3915 25.7665C73.686 26.0747 74.0251 26.3147 74.4089 26.4866C74.7926 26.6585 75.2002 26.7444 75.6345 26.7444C76.0688 26.7444 76.4734 26.6585 76.8512 26.4866C77.229 26.3147 77.5622 26.0747 77.8477 25.7665C78.1333 25.4583 78.3564 25.0996 78.52 24.6936C78.6837 24.2876 78.764 23.849 78.764 23.3778C78.764 22.9066 78.6837 22.4709 78.52 22.0679C78.3564 21.6648 78.1333 21.3122 77.8477 21.0099C77.5622 20.7046 77.229 20.4705 76.8512 20.3045C76.4734 20.1386 76.0658 20.0556 75.6345 20.0556Z" fill="#F7F8F8"/>
<path d="M85.835 18.2451H88.3457L90.8565 27.1004H90.324L92.8198 18.2451H95.1074L97.633 27.1004H97.1005L99.5815 18.2451H101.988L98.4898 28.5407H96.0832L93.6468 20.0974L94.1942 20.1122L91.7132 28.5407H89.3215L85.838 18.2451H85.835Z" fill="#F7F8F8"/>
<path d="M45.0596 35.748C45.8479 35.748 46.5768 35.8814 47.252 36.1452C47.9273 36.4089 48.5133 36.7823 49.0161 37.2624C49.5188 37.7425 49.9085 38.3027 50.1911 38.9399C50.4707 39.577 50.6106 40.2735 50.6106 41.0292C50.6106 41.7849 50.4707 42.4695 50.1911 43.1185C49.9115 43.7675 49.5188 44.3306 49.0161 44.8167C48.5133 45.3027 47.9273 45.6791 47.252 45.9488C46.5768 46.2185 45.8479 46.3518 45.0596 46.3518C44.2713 46.3518 43.5425 46.2155 42.8672 45.9488C42.1919 45.6791 41.6059 45.3027 41.1031 44.8167C40.6004 44.3306 40.2107 43.7646 39.9311 43.1185C39.6514 42.4725 39.5116 41.776 39.5116 41.0292C39.5116 40.2824 39.6514 39.577 39.9311 38.9339C40.2107 38.2908 40.6034 37.7336 41.1031 37.2565C41.6059 36.7823 42.1919 36.4119 42.8672 36.1452C43.5425 35.8814 44.2713 35.748 45.0596 35.748ZM45.0894 37.704C44.655 37.704 44.2445 37.787 43.8578 37.953C43.4681 38.1189 43.129 38.356 42.8404 38.6583C42.5489 38.9636 42.3198 39.3162 42.1532 39.7163C41.9867 40.1164 41.9034 40.555 41.9034 41.0262C41.9034 41.4975 41.9867 41.936 42.1532 42.3421C42.3198 42.7481 42.5519 43.1067 42.8464 43.4149C43.1409 43.7231 43.48 43.9632 43.8637 44.1351C44.2475 44.3069 44.655 44.3929 45.0894 44.3929C45.5237 44.3929 45.9282 44.3069 46.306 44.1351C46.6838 43.9632 47.017 43.7231 47.3026 43.4149C47.5882 43.1067 47.8113 42.7481 47.9749 42.3421C48.1385 41.936 48.2188 41.4975 48.2188 41.0262C48.2188 40.555 48.1385 40.1194 47.9749 39.7163C47.8113 39.3133 47.5882 38.9606 47.3026 38.6583C47.017 38.3531 46.6838 38.1189 46.306 37.953C45.9282 37.787 45.5207 37.704 45.0894 37.704Z" fill="#94C93D"/>
<path d="M56.575 35.8936H58.702L64.3273 43.4537L63.7234 43.6611V35.8965H65.9218V46.1921H63.8097L58.1844 38.6468L58.8031 38.4422V46.1921H56.575V35.8965V35.8936Z" fill="#94C93D"/>
<path d="M72.6359 35.8926H80.5042V37.7597H74.9681V40.0832H79.942V41.9502H74.9681V44.3181H80.6678V46.1852H72.6359V35.8896V35.8926Z" fill="#94C93D"/>
<path d="M40.2464 53.5411H47.6715V55.4081H42.5786V58.0101H47.2431V59.8772H42.5786V63.8336H40.2464V53.5381V53.5411Z" fill="#F7F8F8"/>
<path d="M55.6142 59.6016C55.6142 60.3573 55.8254 60.953 56.2478 61.3886C56.6702 61.8243 57.2265 62.0436 57.9166 62.0436C58.6068 62.0436 59.1244 61.8243 59.532 61.3886C59.9395 60.953 60.1448 60.3573 60.1448 59.6016V53.541H62.477V59.6016C62.477 60.4936 62.2926 61.2701 61.9237 61.9339C61.5548 62.5948 61.0283 63.1045 60.3441 63.4631C59.6599 63.8217 58.8448 63.9995 57.9018 63.9995C56.9588 63.9995 56.1377 63.8217 55.4446 63.4631C54.7515 63.1045 54.216 62.5948 53.8442 61.9339C53.4693 61.273 53.2819 60.4966 53.2819 59.6016V53.541H55.6142V59.6016Z" fill="#F7F8F8"/>
<path d="M67.9863 53.541H76.6221V55.4525H73.4629V63.8366H71.1307V55.4525H67.9863V53.541Z" fill="#F7F8F8"/>
<path d="M84.4607 59.6016C84.4607 60.3573 84.6719 60.953 85.0943 61.3886C85.5167 61.8243 86.073 62.0436 86.7632 62.0436C87.4533 62.0436 87.9709 61.8243 88.3785 61.3886C88.786 60.953 88.9913 60.3573 88.9913 59.6016V53.541H91.3235V59.6016C91.3235 60.4936 91.1391 61.2701 90.7702 61.9339C90.4013 62.5948 89.8748 63.1045 89.1906 63.4631C88.5064 63.8217 87.6913 63.9995 86.7483 63.9995C85.8053 63.9995 84.9842 63.8217 84.2911 63.4631C83.598 63.1045 83.0625 62.5948 82.6907 61.9339C82.3159 61.273 82.1284 60.4966 82.1284 59.6016V53.541H84.4607V59.6016Z" fill="#F7F8F8"/>
<path d="M102.339 53.5411C103.699 53.5411 104.746 53.8522 105.484 54.4746C106.221 55.097 106.59 55.9712 106.59 57.1003C106.59 58.2858 106.221 59.2104 105.484 59.8713C104.746 60.5322 103.699 60.8641 102.339 60.8641H100.182V63.8336H97.8502V53.5381H102.339V53.5411ZM102.339 58.9822C102.988 58.9822 103.49 58.834 103.844 58.5347C104.198 58.2354 104.377 57.782 104.377 57.1744C104.377 56.5669 104.198 56.146 103.844 55.8497C103.49 55.5563 102.988 55.4081 102.339 55.4081H100.182V58.9822H102.339ZM102.057 59.9987H104.329L106.84 63.8366H104.198L102.057 59.9987Z" fill="#F7F8F8"/>
<path d="M112.968 53.5411H120.836V55.4081H115.3V57.7316H120.274V59.5986H115.3V61.9665H121V63.8336H112.968V53.5381V53.5411Z" fill="#F7F8F8"/>
<path d="M24.2064 63.9647H16.5106C17.0282 53.5862 17.5458 43.2047 18.0634 32.8262C19.6311 32.841 21.1989 32.8558 22.7695 32.8706C23.2485 43.2343 23.7304 53.601 24.2093 63.9647H24.2064Z" fill="#94C93D"/>
<path d="M30.9234 46.4051H27.3269C27.1127 45.9724 26.7409 45.3738 26.0983 44.8789C25.0125 44.0431 23.7393 44.0283 22.0824 44.0135C21.7165 44.0105 21.0174 44.0165 19.1135 44.2506C17.2335 44.4818 16.0257 44.704 15.3772 44.8078C13.4257 45.1189 10.1088 45.6464 6.76221 44.3899C5.96496 44.0906 4.26041 43.4297 2.71055 41.776C2.27325 41.3107 1.10416 39.9741 0.452683 37.8581C0.440784 37.8225 0.422934 37.7573 0.396161 37.6714C0.289069 37.3069 -0.133352 35.7717 0.0421607 33.955C0.244446 31.8835 1.13688 30.3839 1.63665 29.563C2.63915 27.9152 3.85286 26.8216 4.74827 26.1489C4.11464 25.7073 3.19543 24.9605 2.36547 23.8018C1.40164 22.4563 1.02384 21.2115 0.904847 20.7729C0.315839 18.6065 0.675789 16.8284 0.779907 16.3542C0.907823 15.7882 1.36297 14.007 2.79979 12.38C5.489 9.33641 9.44249 9.30084 10.1088 9.30381C10.1237 8.44733 10.2606 7.05741 10.9477 5.54005C11.1827 5.02438 12.9408 1.31394 17.1115 0.264824C19.3634 -0.301223 21.2702 0.169981 22.1954 0.478195C24.483 1.2428 25.7949 2.68904 26.3244 3.29065C26.8242 3.85966 27.904 5.10734 28.4216 7.07221C29.1118 9.68907 28.3651 11.894 28.023 12.7475C26.9045 12.7179 25.783 12.6882 24.6645 12.6586C24.8727 12.3267 26.1013 10.2966 25.4052 7.73012C25.3219 7.41894 24.6675 5.15774 22.3888 3.9071C21.0293 3.16324 19.7442 3.13359 19.2117 3.15137C17.6559 3.19879 16.5612 3.82115 16.2548 4.00785C15.0708 4.72208 14.4699 5.6556 14.214 6.06161C13.0807 7.86644 13.1431 9.71277 13.1758 10.6967C13.2056 11.5413 13.3365 12.2318 13.4466 12.6912C12.9736 12.6082 12.5035 12.5282 12.0306 12.4452C10.9567 12.2585 9.87681 12.2556 9.38002 12.2822C7.38989 12.3919 4.68283 14.2501 4.04028 16.9795C3.62083 18.7607 4.23364 20.2573 4.49839 20.8796C6.06015 24.5426 10.1267 25.6273 10.7811 25.7903C10.1921 26.0185 9.20748 26.4453 8.12169 27.1832C7.22627 27.7937 3.46019 30.3632 3.25195 34.2099C3.17758 35.5821 3.57621 36.7379 3.6476 36.9364C3.6476 36.9364 4.10572 38.2286 5.0755 39.3251C6.58074 41.0232 9.51983 41.9834 12.8546 41.7197L15.6895 41.4855C17.0341 41.1684 24.5038 39.6126 28.4573 42.3569C29.4688 43.0592 30.0369 43.9839 30.0369 43.9839C30.6438 44.9204 30.8491 45.8332 30.9264 46.3992L30.9234 46.4051Z" fill="#94C93D"/>
<path d="M19.9613 28.8457C22.8233 28.8457 25.1434 26.5343 25.1434 23.6831C25.1434 20.8319 22.8233 18.5205 19.9613 18.5205C17.0994 18.5205 14.7793 20.8319 14.7793 23.6831C14.7793 26.5343 17.0994 28.8457 19.9613 28.8457Z" fill="#F7F8F8"/>
</svg>
